<?xml version="1.0" encoding="iso-8859-1"?>
<!-- Uploaded to: SVG Repo, www.svgrepo.com, Generator: SVG Repo Mixer Tools -->
<svg version="1.1" id="Layer_1" xmlns="http://www.w3.org/2000/svg" xmlns:xlink="http://www.w3.org/1999/xlink" 
	 viewBox="0 0 512 512" xml:space="preserve">
<circle style="fill:#FF5023;" cx="256" cy="45.176" r="45.176"/>
<path style="fill:#BF3C1A;" d="M256,0c24.949,0,45.176,20.227,45.176,45.176S280.949,90.353,256,90.353"/>
<rect x="120.471" y="128" style="fill:#FF5023;" width="120.471" height="45.176"/>
<rect x="271.059" y="128" style="fill:#BF3C1A;" width="120.471" height="45.176"/>
<rect x="165.647" y="45.176" style="fill:#FF9811;" width="180.706" height="210.824"/>
<rect x="256" y="45.176" style="fill:#FF5023;" width="90.353" height="210.824"/>
<g>
	<circle style="fill:#2A2718;" cx="256" cy="105.412" r="22.588"/>
	<path style="fill:#2A2718;" d="M225.882,173.176c0,16.632,13.482,30.118,30.118,30.118l0,0c16.631,0,30.118-13.485,30.118-30.118
		H225.882z"/>
</g>
<polygon style="fill:#FF5023;" points="105.412,225.882 180.706,451.765 331.294,451.765 406.588,225.882 "/>
<polygon style="fill:#BF3C1A;" points="256,225.882 256,451.765 331.294,451.765 406.588,225.882 "/>
<rect x="135.529" y="391.529" style="fill:#FF9811;" width="60.235" height="120.471"/>
<rect x="316.235" y="391.529" style="fill:#FF5023;" width="60.235" height="120.471"/>
</svg>